<?xml version="1.0" encoding="UTF-8" standalone="no"?>
<!-- Created with Inkscape (http://www.inkscape.org/) -->

<svg
   xmlns:dc="http://purl.org/dc/elements/1.1/"
   xmlns:cc="http://creativecommons.org/ns#"
   xmlns:rdf="http://www.w3.org/1999/02/22-rdf-syntax-ns#"
   xmlns:svg="http://www.w3.org/2000/svg"
   xmlns="http://www.w3.org/2000/svg"
   xmlns:sodipodi="http://sodipodi.sourceforge.net/DTD/sodipodi-0.dtd"
   xmlns:inkscape="http://www.inkscape.org/namespaces/inkscape"
   width="256"
   height="128"
   viewBox="0 0 256 128"
   id="svg2"
   version="1.1"
   inkscape:version="0.91 r13725"
   sodipodi:docname="template.svg">
  <defs
     id="defs4" />
  <sodipodi:namedview
     id="base"
     pagecolor="#ffffff"
     bordercolor="#666666"
     borderopacity="1.0"
     inkscape:pageopacity="0.0"
     inkscape:pageshadow="2"
     inkscape:zoom="2.8"
     inkscape:cx="107.07965"
     inkscape:cy="17.415184"
     inkscape:document-units="px"
     inkscape:current-layer="layer1"
     showgrid="false"
     units="px"
     showguides="false"
     inkscape:window-width="1680"
     inkscape:window-height="987"
     inkscape:window-x="-8"
     inkscape:window-y="-8"
     inkscape:window-maximized="1" />
  <metadata
     id="metadata7">
    <rdf:RDF>
      <cc:Work
         rdf:about="">
        <dc:format>image/svg+xml</dc:format>
        <dc:type
           rdf:resource="http://purl.org/dc/dcmitype/StillImage" />
        <dc:title></dc:title>
      </cc:Work>
    </rdf:RDF>
  </metadata>
  <g
     inkscape:label="Layer 1"
     inkscape:groupmode="layer"
     id="layer1"
     transform="translate(0,-924.36216)">
    <path
       style="opacity:1;fill:#f5f5f5;fill-opacity:1;fill-rule:evenodd;stroke:none;stroke-width:0.8920294;stroke-linecap:round;stroke-linejoin:round;stroke-miterlimit:4;stroke-dasharray:none;stroke-dashoffset:0;stroke-opacity:1"
       d="M 30 0 C 13.38 0 0 13.38 0 30 L 0 98 C 0 114.62 13.38 128 30 128 L 226 128 C 242.62 128 256 114.62 256 98 L 256 30 C 256 13.38 242.62 0 226 0 L 30 0 z "
       transform="translate(0,924.36216)"
       id="rect4140" />
    <path
       style="font-style:normal;font-variant:normal;font-weight:bold;font-stretch:normal;font-size:29.34144592px;line-height:125%;font-family:Couture;-inkscape-font-specification:'Couture Bold';text-align:center;letter-spacing:-1.46707225px;word-spacing:0px;text-anchor:middle;fill:#000000;fill-opacity:0.09803922;stroke:none;stroke-width:1px;stroke-linecap:butt;stroke-linejoin:miter;stroke-opacity:1"
       d="M 113.91016 36.921875 C 110.12511 36.921875 106.07617 38.946573 106.07617 43.259766 C 106.07617 51.093932 118.54688 48.219788 118.54688 52.679688 C 118.54688 54.821613 116.08253 55.291016 114.46875 55.291016 C 112.76695 55.291016 110.30149 54.908487 109.83203 52.150391 L 105.37305 51.417969 C 105.37305 56.582063 109.59834 58.869141 114.29297 58.869141 C 120.01455 58.869141 123.00781 55.99412 123.00781 52.150391 C 123.00781 47.397076 118.34221 46.428314 116.78711 46.046875 C 111.53499 44.785193 110.53711 44.434003 110.53711 42.878906 C 110.53711 41.118419 112.23801 40.501953 113.70508 40.501953 C 115.14281 40.501953 117.28626 40.590051 117.84375 43.025391 L 122.30273 43.671875 C 122.30273 38.830536 118.28203 36.921875 113.91016 36.921875 z M 123.72461 37.333984 L 123.72461 58.341797 L 140.00781 58.341797 L 140.00781 54.46875 L 128.18359 54.46875 L 128.18359 50.009766 L 137.75 50.009766 L 137.75 45.929688 L 128.18359 45.929688 L 128.18359 41.207031 L 139.01172 41.207031 L 139.01172 37.333984 L 123.72461 37.333984 z M 86.029297 37.363281 L 86.029297 58.400391 L 90.048828 58.400391 L 90.048828 43.90625 L 100.67188 58.400391 L 104.57422 58.400391 L 104.57422 37.363281 L 100.67188 37.363281 L 100.67188 50.449219 L 91.310547 37.363281 L 86.029297 37.363281 z M 79.253906 37.421875 L 79.253906 58.371094 L 83.861328 58.371094 L 83.861328 37.421875 L 79.253906 37.421875 z M 141.86914 37.421875 L 141.86914 58.400391 L 146.50391 58.400391 L 146.50391 50.859375 L 148.76367 50.859375 L 154.04492 58.400391 L 159.67773 58.400391 L 153.81055 50.625 L 153.63477 50.625 C 157.1264 49.862122 158.62305 46.986745 158.62305 44.140625 C 158.62305 40.737017 156.59787 37.421875 151.31641 37.421875 L 141.86914 37.421875 z M 160.25586 37.451172 L 160.25586 41.294922 L 166.91602 41.294922 L 166.91602 58.371094 L 171.52344 58.371094 L 171.52344 41.324219 L 178.125 41.324219 L 178.125 37.451172 L 160.25586 37.451172 z M 146.50391 41.001953 L 150.08398 41.001953 C 152.28459 41.001953 154.10352 41.411871 154.10352 44.140625 C 154.10352 46.810697 152.28459 47.308594 150.08398 47.308594 L 146.50391 47.308594 L 146.50391 41.001953 z M 154.56445 73.980469 L 154.56445 94.990234 L 159.05273 94.990234 L 159.05273 86.070312 L 168.76562 86.070312 L 168.76562 94.990234 L 173.2832 94.990234 L 173.2832 74.039062 L 168.76562 74.039062 L 168.76562 81.580078 L 159.05273 81.580078 L 159.05273 73.980469 L 154.56445 73.980469 z M 109.67773 74.009766 L 109.67773 95.019531 L 125.96289 95.019531 L 125.96289 91.146484 L 114.13867 91.146484 L 114.13867 86.685547 L 123.70312 86.685547 L 123.70312 82.607422 L 114.13867 82.607422 L 114.13867 77.882812 L 124.96484 77.882812 L 124.96484 74.009766 L 109.67773 74.009766 z M 174.69922 74.009766 L 174.69922 95.019531 L 190.98438 95.019531 L 190.98438 91.146484 L 179.1582 91.146484 L 179.1582 86.685547 L 188.72461 86.685547 L 188.72461 82.607422 L 179.1582 82.607422 L 179.1582 77.882812 L 189.98633 77.882812 L 189.98633 74.009766 L 174.69922 74.009766 z M 212.05273 74.009766 L 212.05273 95.019531 L 228.33594 95.019531 L 228.33594 91.146484 L 216.51172 91.146484 L 216.51172 86.685547 L 226.07812 86.685547 L 226.07812 82.607422 L 216.51172 82.607422 L 216.51172 77.882812 L 227.33789 77.882812 L 227.33789 74.009766 L 212.05273 74.009766 z M 69.291016 74.039062 L 69.291016 95.078125 L 73.310547 95.078125 L 73.310547 80.582031 L 83.931641 95.078125 L 87.833984 95.078125 L 87.833984 74.039062 L 83.931641 74.039062 L 83.931641 87.125 L 74.572266 74.039062 L 69.291016 74.039062 z M 89.542969 74.039062 L 89.542969 95.078125 L 93.5625 95.078125 L 93.5625 80.582031 L 104.18359 95.078125 L 108.08594 95.078125 L 108.08594 74.039062 L 104.18359 74.039062 L 104.18359 87.125 L 94.824219 74.039062 L 89.542969 74.039062 z M 28.335938 74.097656 L 28.335938 95.048828 L 38.488281 95.048828 C 42.273328 95.048828 45.882812 93.229119 45.882812 88.974609 C 45.882812 86.363221 44.62111 84.397599 42.039062 83.664062 C 43.916915 82.754478 44.884766 81.4036 44.884766 79.291016 C 44.884766 75.388603 42.185749 74.097656 38.195312 74.097656 L 28.335938 74.097656 z M 127.82227 74.097656 L 127.82227 95.078125 L 132.45898 95.078125 L 132.45898 87.537109 L 134.7168 87.537109 L 139.99805 95.078125 L 145.63281 95.078125 L 139.76367 87.302734 L 139.58789 87.302734 C 143.07952 86.539857 144.57617 83.66448 144.57617 80.818359 C 144.57617 77.414752 142.55099 74.097656 137.26953 74.097656 L 127.82227 74.097656 z M 192.84375 74.097656 L 192.84375 95.078125 L 197.47852 95.078125 L 197.47852 87.537109 L 199.73828 87.537109 L 205.01953 95.078125 L 210.6543 95.078125 L 204.78516 87.302734 L 204.60938 87.302734 C 208.10101 86.539857 209.59766 83.66448 209.59766 80.818359 C 209.59766 77.414752 207.57248 74.097656 202.29102 74.097656 L 192.84375 74.097656 z M 55.011719 74.126953 L 45.503906 95.048828 L 49.701172 95.048828 L 51.900391 90.412109 L 62.494141 90.412109 L 64.546875 95.048828 L 69.007812 95.048828 L 59.646484 74.126953 L 55.011719 74.126953 z M 32.943359 77.677734 L 37.255859 77.677734 C 38.89898 77.677734 40.425781 78.118107 40.425781 80.083984 C 40.425781 81.844471 39.250543 82.578125 37.607422 82.578125 L 32.943359 82.578125 L 32.943359 77.677734 z M 132.45898 77.677734 L 136.03711 77.677734 C 138.23772 77.677734 140.05859 78.089605 140.05859 80.818359 C 140.05859 83.488431 138.23772 83.986328 136.03711 83.986328 L 132.45898 83.986328 L 132.45898 77.677734 z M 197.47852 77.677734 L 201.05859 77.677734 C 203.2592 77.677734 205.07812 78.089605 205.07812 80.818359 C 205.07812 83.488431 203.2592 83.986328 201.05859 83.986328 L 197.47852 83.986328 L 197.47852 77.677734 z M 57.388672 78.058594 L 57.417969 78.058594 L 60.820312 86.158203 L 53.867188 86.158203 L 57.388672 78.058594 z M 32.943359 85.716797 L 37.960938 85.716797 C 39.956156 85.716797 41.275391 86.569012 41.275391 88.710938 C 41.275391 90.882204 39.662875 91.46875 37.873047 91.46875 L 32.943359 91.46875 L 32.943359 85.716797 z "
       transform="translate(0,924.36216)"
       id="text4152" />
    <path
       style="font-style:normal;font-variant:normal;font-weight:bold;font-stretch:normal;font-size:29.34144592px;line-height:125%;font-family:Couture;-inkscape-font-specification:'Couture Bold';text-align:center;letter-spacing:-1.46707225px;word-spacing:0px;text-anchor:middle;fill:#191919;fill-opacity:1;stroke:none;stroke-width:1px;stroke-linecap:butt;stroke-linejoin:miter;stroke-opacity:1;"
       d="M 111.91016 34.921875 C 108.12511 34.921875 104.07617 36.946573 104.07617 41.259766 C 104.07617 49.093932 116.54688 46.219788 116.54688 50.679688 C 116.54688 52.821613 114.08253 53.291016 112.46875 53.291016 C 110.76695 53.291016 108.30149 52.908487 107.83203 50.150391 L 103.37305 49.417969 C 103.37305 54.582063 107.59834 56.869141 112.29297 56.869141 C 118.01455 56.869141 121.00781 53.99412 121.00781 50.150391 C 121.00781 45.397076 116.34221 44.428314 114.78711 44.046875 C 109.53499 42.785193 108.53711 42.434003 108.53711 40.878906 C 108.53711 39.118419 110.23801 38.501953 111.70508 38.501953 C 113.14281 38.501953 115.28626 38.590051 115.84375 41.025391 L 120.30273 41.671875 C 120.30273 36.830536 116.28203 34.921875 111.91016 34.921875 z M 121.72461 35.333984 L 121.72461 56.341797 L 138.00781 56.341797 L 138.00781 52.46875 L 126.18359 52.46875 L 126.18359 48.009766 L 135.75 48.009766 L 135.75 43.929688 L 126.18359 43.929688 L 126.18359 39.207031 L 137.01172 39.207031 L 137.01172 35.333984 L 121.72461 35.333984 z M 84.029297 35.363281 L 84.029297 56.400391 L 88.048828 56.400391 L 88.048828 41.90625 L 98.671875 56.400391 L 102.57422 56.400391 L 102.57422 35.363281 L 98.671875 35.363281 L 98.671875 48.449219 L 89.310547 35.363281 L 84.029297 35.363281 z M 77.253906 35.421875 L 77.253906 56.371094 L 81.861328 56.371094 L 81.861328 35.421875 L 77.253906 35.421875 z M 139.86914 35.421875 L 139.86914 56.400391 L 144.50391 56.400391 L 144.50391 48.859375 L 146.76367 48.859375 L 152.04492 56.400391 L 157.67773 56.400391 L 151.81055 48.625 L 151.63477 48.625 C 155.1264 47.862122 156.62305 44.986745 156.62305 42.140625 C 156.62305 38.737017 154.59787 35.421875 149.31641 35.421875 L 139.86914 35.421875 z M 158.25586 35.451172 L 158.25586 39.294922 L 164.91602 39.294922 L 164.91602 56.371094 L 169.52344 56.371094 L 169.52344 39.324219 L 176.125 39.324219 L 176.125 35.451172 L 158.25586 35.451172 z M 144.50391 39.001953 L 148.08398 39.001953 C 150.28459 39.001953 152.10352 39.411871 152.10352 42.140625 C 152.10352 44.810697 150.28459 45.308594 148.08398 45.308594 L 144.50391 45.308594 L 144.50391 39.001953 z M 152.56445 71.980469 L 152.56445 92.990234 L 157.05273 92.990234 L 157.05273 84.070312 L 166.76562 84.070312 L 166.76562 92.990234 L 171.2832 92.990234 L 171.2832 72.039062 L 166.76562 72.039062 L 166.76562 79.580078 L 157.05273 79.580078 L 157.05273 71.980469 L 152.56445 71.980469 z M 107.67773 72.009766 L 107.67773 93.019531 L 123.96289 93.019531 L 123.96289 89.146484 L 112.13867 89.146484 L 112.13867 84.685547 L 121.70312 84.685547 L 121.70312 80.607422 L 112.13867 80.607422 L 112.13867 75.882812 L 122.96484 75.882812 L 122.96484 72.009766 L 107.67773 72.009766 z M 172.69922 72.009766 L 172.69922 93.019531 L 188.98438 93.019531 L 188.98438 89.146484 L 177.1582 89.146484 L 177.1582 84.685547 L 186.72461 84.685547 L 186.72461 80.607422 L 177.1582 80.607422 L 177.1582 75.882812 L 187.98633 75.882812 L 187.98633 72.009766 L 172.69922 72.009766 z M 210.05273 72.009766 L 210.05273 93.019531 L 226.33594 93.019531 L 226.33594 89.146484 L 214.51172 89.146484 L 214.51172 84.685547 L 224.07812 84.685547 L 224.07812 80.607422 L 214.51172 80.607422 L 214.51172 75.882812 L 225.33984 75.882812 L 225.33984 72.009766 L 210.05273 72.009766 z M 67.291016 72.039062 L 67.291016 93.078125 L 71.310547 93.078125 L 71.310547 78.582031 L 81.931641 93.078125 L 85.833984 93.078125 L 85.833984 72.039062 L 81.931641 72.039062 L 81.931641 85.125 L 72.572266 72.039062 L 67.291016 72.039062 z M 87.542969 72.039062 L 87.542969 93.078125 L 91.5625 93.078125 L 91.5625 78.582031 L 102.18359 93.078125 L 106.08594 93.078125 L 106.08594 72.039062 L 102.18359 72.039062 L 102.18359 85.125 L 92.824219 72.039062 L 87.542969 72.039062 z M 26.335938 72.097656 L 26.335938 93.048828 L 36.488281 93.048828 C 40.273328 93.048828 43.882812 91.229119 43.882812 86.974609 C 43.882812 84.363221 42.62111 82.397599 40.039062 81.664062 C 41.916915 80.754478 42.884766 79.4036 42.884766 77.291016 C 42.884766 73.388603 40.185749 72.097656 36.195312 72.097656 L 26.335938 72.097656 z M 125.82227 72.097656 L 125.82227 93.078125 L 130.45898 93.078125 L 130.45898 85.537109 L 132.7168 85.537109 L 137.99805 93.078125 L 143.63281 93.078125 L 137.76367 85.302734 L 137.58789 85.302734 C 141.07952 84.539857 142.57617 81.66448 142.57617 78.818359 C 142.57617 75.414752 140.55099 72.097656 135.26953 72.097656 L 125.82227 72.097656 z M 190.84375 72.097656 L 190.84375 93.078125 L 195.47852 93.078125 L 195.47852 85.537109 L 197.73828 85.537109 L 203.01953 93.078125 L 208.6543 93.078125 L 202.78516 85.302734 L 202.60938 85.302734 C 206.10101 84.539857 207.59766 81.66448 207.59766 78.818359 C 207.59766 75.414752 205.57248 72.097656 200.29102 72.097656 L 190.84375 72.097656 z M 53.011719 72.126953 L 43.505859 93.048828 L 47.701172 93.048828 L 49.900391 88.412109 L 60.494141 88.412109 L 62.546875 93.048828 L 67.007812 93.048828 L 57.648438 72.126953 L 53.011719 72.126953 z M 30.943359 75.677734 L 35.255859 75.677734 C 36.89898 75.677734 38.425781 76.118107 38.425781 78.083984 C 38.425781 79.844471 37.250543 80.578125 35.607422 80.578125 L 30.943359 80.578125 L 30.943359 75.677734 z M 130.45898 75.677734 L 134.03711 75.677734 C 136.23772 75.677734 138.05859 76.089605 138.05859 78.818359 C 138.05859 81.488431 136.23772 81.986328 134.03711 81.986328 L 130.45898 81.986328 L 130.45898 75.677734 z M 195.47852 75.677734 L 199.05859 75.677734 C 201.2592 75.677734 203.07812 76.089605 203.07812 78.818359 C 203.07812 81.488431 201.2592 81.986328 199.05859 81.986328 L 195.47852 81.986328 L 195.47852 75.677734 z M 55.388672 76.058594 L 55.417969 76.058594 L 58.820312 84.158203 L 51.867188 84.158203 L 55.388672 76.058594 z M 30.943359 83.716797 L 35.960938 83.716797 C 37.956156 83.716797 39.275391 84.569012 39.275391 86.710938 C 39.275391 88.882204 37.662875 89.46875 35.873047 89.46875 L 30.943359 89.46875 L 30.943359 83.716797 z "
       transform="translate(0,924.36216)"
       id="text4136" />
  </g>
</svg>
